<mxfile host="app.diagrams.net" agent="Mozilla/5.0 (Windows NT 10.0; Win64; x64) AppleWebKit/537.36 (KHTML, like Gecko) Chrome/139.0.0.0 Safari/537.36" version="28.2.0">
  <diagram name="ページ1" id="ZyIlJGKa62EXHZEtZneP">
    <mxGraphModel dx="2124" dy="1664" grid="0" gridSize="10" guides="1" tooltips="1" connect="1" arrows="1" fold="1" page="0" pageScale="1" pageWidth="827" pageHeight="1169" math="0" shadow="0">
      <root>
        <mxCell id="0" />
        <mxCell id="1" parent="0" />
        <mxCell id="zLy3P4jvhu5-wyjdhr2z-5" value="利用者" style="html=1;whiteSpace=wrap;" vertex="1" parent="1">
          <mxGeometry x="-53" y="82" width="110" height="50" as="geometry" />
        </mxCell>
        <mxCell id="zLy3P4jvhu5-wyjdhr2z-6" value="図書カード" style="html=1;whiteSpace=wrap;" vertex="1" parent="1">
          <mxGeometry x="-53" y="189" width="110" height="50" as="geometry" />
        </mxCell>
        <mxCell id="zLy3P4jvhu5-wyjdhr2z-7" value="氏名" style="html=1;whiteSpace=wrap;" vertex="1" parent="1">
          <mxGeometry x="-216" y="325" width="110" height="50" as="geometry" />
        </mxCell>
        <mxCell id="zLy3P4jvhu5-wyjdhr2z-8" value="図書" style="html=1;whiteSpace=wrap;" vertex="1" parent="1">
          <mxGeometry x="204" y="82" width="110" height="50" as="geometry" />
        </mxCell>
        <mxCell id="zLy3P4jvhu5-wyjdhr2z-9" value="貸し出し予約" style="html=1;whiteSpace=wrap;" vertex="1" parent="1">
          <mxGeometry x="-244" y="-37" width="110" height="50" as="geometry" />
        </mxCell>
        <mxCell id="zLy3P4jvhu5-wyjdhr2z-10" value="借りている本" style="html=1;whiteSpace=wrap;" vertex="1" parent="1">
          <mxGeometry x="-446" y="189" width="110" height="50" as="geometry" />
        </mxCell>
        <mxCell id="zLy3P4jvhu5-wyjdhr2z-11" value="※本のID" style="html=1;whiteSpace=wrap;" vertex="1" parent="1">
          <mxGeometry x="-694" y="378" width="110" height="50" as="geometry" />
        </mxCell>
        <mxCell id="zLy3P4jvhu5-wyjdhr2z-12" value="貸し出し期限" style="html=1;whiteSpace=wrap;" vertex="1" parent="1">
          <mxGeometry x="-474" y="328" width="110" height="50" as="geometry" />
        </mxCell>
        <mxCell id="zLy3P4jvhu5-wyjdhr2z-13" value="著者" style="html=1;whiteSpace=wrap;" vertex="1" parent="1">
          <mxGeometry x="-584" y="328" width="110" height="50" as="geometry" />
        </mxCell>
        <mxCell id="zLy3P4jvhu5-wyjdhr2z-14" value="書名" style="html=1;whiteSpace=wrap;" vertex="1" parent="1">
          <mxGeometry x="-694" y="328" width="110" height="50" as="geometry" />
        </mxCell>
        <mxCell id="zLy3P4jvhu5-wyjdhr2z-16" value="" style="endArrow=diamondThin;endFill=0;endSize=24;html=1;rounded=0;fontSize=12;curved=1;entryX=0;entryY=0.5;entryDx=0;entryDy=0;exitX=0.5;exitY=0;exitDx=0;exitDy=0;" edge="1" parent="1" source="zLy3P4jvhu5-wyjdhr2z-14" target="zLy3P4jvhu5-wyjdhr2z-10">
          <mxGeometry width="160" relative="1" as="geometry">
            <mxPoint x="-636" y="263" as="sourcePoint" />
            <mxPoint x="-434" y="253.5" as="targetPoint" />
          </mxGeometry>
        </mxCell>
        <mxCell id="zLy3P4jvhu5-wyjdhr2z-17" value="" style="endArrow=diamondThin;endFill=0;endSize=24;html=1;rounded=0;fontSize=12;curved=1;exitX=0.5;exitY=0;exitDx=0;exitDy=0;entryX=0.5;entryY=1;entryDx=0;entryDy=0;" edge="1" parent="1" source="zLy3P4jvhu5-wyjdhr2z-13" target="zLy3P4jvhu5-wyjdhr2z-10">
          <mxGeometry width="160" relative="1" as="geometry">
            <mxPoint x="-474" y="323" as="sourcePoint" />
            <mxPoint x="-226" y="234" as="targetPoint" />
          </mxGeometry>
        </mxCell>
        <mxCell id="zLy3P4jvhu5-wyjdhr2z-18" value="" style="endArrow=diamondThin;endFill=0;endSize=24;html=1;rounded=0;fontSize=12;curved=1;exitX=0.5;exitY=0;exitDx=0;exitDy=0;entryX=0.75;entryY=1;entryDx=0;entryDy=0;" edge="1" parent="1" source="zLy3P4jvhu5-wyjdhr2z-12" target="zLy3P4jvhu5-wyjdhr2z-10">
          <mxGeometry width="160" relative="1" as="geometry">
            <mxPoint x="-421" y="331" as="sourcePoint" />
            <mxPoint x="-173" y="242" as="targetPoint" />
          </mxGeometry>
        </mxCell>
        <mxCell id="zLy3P4jvhu5-wyjdhr2z-20" value="あと何冊借りることが" style="html=1;whiteSpace=wrap;" vertex="1" parent="1">
          <mxGeometry x="487" y="325" width="412" height="50" as="geometry" />
        </mxCell>
        <mxCell id="zLy3P4jvhu5-wyjdhr2z-21" value="パスワード" style="html=1;whiteSpace=wrap;" vertex="1" parent="1">
          <mxGeometry x="380" y="325" width="110" height="50" as="geometry" />
        </mxCell>
        <mxCell id="zLy3P4jvhu5-wyjdhr2z-22" value="ID" style="html=1;whiteSpace=wrap;" vertex="1" parent="1">
          <mxGeometry x="270" y="325" width="110" height="50" as="geometry" />
        </mxCell>
        <mxCell id="zLy3P4jvhu5-wyjdhr2z-23" value="電子メールアドレス" style="html=1;whiteSpace=wrap;" vertex="1" parent="1">
          <mxGeometry x="114" y="325" width="158" height="50" as="geometry" />
        </mxCell>
        <mxCell id="zLy3P4jvhu5-wyjdhr2z-24" value="電話番号" style="html=1;whiteSpace=wrap;" vertex="1" parent="1">
          <mxGeometry x="4" y="325" width="110" height="50" as="geometry" />
        </mxCell>
        <mxCell id="zLy3P4jvhu5-wyjdhr2z-25" value="住所" style="html=1;whiteSpace=wrap;" vertex="1" parent="1">
          <mxGeometry x="-106" y="325" width="110" height="50" as="geometry" />
        </mxCell>
        <mxCell id="zLy3P4jvhu5-wyjdhr2z-29" value="" style="endArrow=diamondThin;endFill=0;endSize=24;html=1;rounded=0;fontSize=12;curved=1;exitX=0.5;exitY=0;exitDx=0;exitDy=0;entryX=0;entryY=1;entryDx=0;entryDy=0;" edge="1" parent="1" source="zLy3P4jvhu5-wyjdhr2z-7" target="zLy3P4jvhu5-wyjdhr2z-6">
          <mxGeometry width="160" relative="1" as="geometry">
            <mxPoint x="-153" y="303" as="sourcePoint" />
            <mxPoint x="-97" y="214" as="targetPoint" />
          </mxGeometry>
        </mxCell>
        <mxCell id="zLy3P4jvhu5-wyjdhr2z-30" value="" style="endArrow=diamondThin;endFill=0;endSize=24;html=1;rounded=0;fontSize=12;curved=1;entryX=0.25;entryY=1;entryDx=0;entryDy=0;exitX=0.5;exitY=0;exitDx=0;exitDy=0;" edge="1" parent="1" source="zLy3P4jvhu5-wyjdhr2z-25" target="zLy3P4jvhu5-wyjdhr2z-6">
          <mxGeometry width="160" relative="1" as="geometry">
            <mxPoint x="-26" y="313" as="sourcePoint" />
            <mxPoint x="114" y="144" as="targetPoint" />
          </mxGeometry>
        </mxCell>
        <mxCell id="zLy3P4jvhu5-wyjdhr2z-32" value="" style="endArrow=diamondThin;endFill=0;endSize=24;html=1;rounded=0;fontSize=12;curved=1;exitX=0.5;exitY=0;exitDx=0;exitDy=0;entryX=0.5;entryY=1;entryDx=0;entryDy=0;" edge="1" parent="1" source="zLy3P4jvhu5-wyjdhr2z-24" target="zLy3P4jvhu5-wyjdhr2z-6">
          <mxGeometry width="160" relative="1" as="geometry">
            <mxPoint x="74" y="311" as="sourcePoint" />
            <mxPoint x="130" y="222" as="targetPoint" />
          </mxGeometry>
        </mxCell>
        <mxCell id="zLy3P4jvhu5-wyjdhr2z-34" value="" style="endArrow=diamondThin;endFill=0;endSize=24;html=1;rounded=0;fontSize=12;curved=1;exitX=0.5;exitY=0;exitDx=0;exitDy=0;entryX=0.75;entryY=1;entryDx=0;entryDy=0;" edge="1" parent="1" source="zLy3P4jvhu5-wyjdhr2z-23" target="zLy3P4jvhu5-wyjdhr2z-6">
          <mxGeometry width="160" relative="1" as="geometry">
            <mxPoint x="196" y="306" as="sourcePoint" />
            <mxPoint x="252" y="217" as="targetPoint" />
          </mxGeometry>
        </mxCell>
        <mxCell id="zLy3P4jvhu5-wyjdhr2z-35" value="" style="endArrow=diamondThin;endFill=0;endSize=24;html=1;rounded=0;fontSize=12;curved=1;exitX=0.5;exitY=0;exitDx=0;exitDy=0;entryX=1;entryY=0.75;entryDx=0;entryDy=0;" edge="1" parent="1" source="zLy3P4jvhu5-wyjdhr2z-22" target="zLy3P4jvhu5-wyjdhr2z-6">
          <mxGeometry width="160" relative="1" as="geometry">
            <mxPoint x="337" y="303" as="sourcePoint" />
            <mxPoint x="393" y="57" as="targetPoint" />
          </mxGeometry>
        </mxCell>
        <mxCell id="zLy3P4jvhu5-wyjdhr2z-36" value="" style="endArrow=diamondThin;endFill=0;endSize=24;html=1;rounded=0;fontSize=12;curved=1;exitX=0.5;exitY=0;exitDx=0;exitDy=0;entryX=1;entryY=0.25;entryDx=0;entryDy=0;" edge="1" parent="1" source="zLy3P4jvhu5-wyjdhr2z-21" target="zLy3P4jvhu5-wyjdhr2z-6">
          <mxGeometry width="160" relative="1" as="geometry">
            <mxPoint x="425" y="287" as="sourcePoint" />
            <mxPoint x="572" y="15" as="targetPoint" />
          </mxGeometry>
        </mxCell>
        <mxCell id="zLy3P4jvhu5-wyjdhr2z-37" value="" style="endArrow=diamondThin;endFill=0;endSize=24;html=1;rounded=0;fontSize=12;curved=1;exitX=0.472;exitY=0.037;exitDx=0;exitDy=0;entryX=1;entryY=0.25;entryDx=0;entryDy=0;exitPerimeter=0;" edge="1" parent="1" source="zLy3P4jvhu5-wyjdhr2z-20" target="zLy3P4jvhu5-wyjdhr2z-6">
          <mxGeometry width="160" relative="1" as="geometry">
            <mxPoint x="566" y="639" as="sourcePoint" />
            <mxPoint x="703" y="208" as="targetPoint" />
          </mxGeometry>
        </mxCell>
        <mxCell id="zLy3P4jvhu5-wyjdhr2z-38" value="" style="endArrow=diamondThin;endFill=0;endSize=24;html=1;rounded=0;fontSize=12;curved=1;exitX=0.5;exitY=0;exitDx=0;exitDy=0;entryX=0.5;entryY=1;entryDx=0;entryDy=0;" edge="1" parent="1" source="zLy3P4jvhu5-wyjdhr2z-6" target="zLy3P4jvhu5-wyjdhr2z-5">
          <mxGeometry width="160" relative="1" as="geometry">
            <mxPoint x="100" y="755" as="sourcePoint" />
            <mxPoint x="156" y="666" as="targetPoint" />
          </mxGeometry>
        </mxCell>
        <mxCell id="zLy3P4jvhu5-wyjdhr2z-39" value="どこの棚にあるか" style="html=1;whiteSpace=wrap;" vertex="1" parent="1">
          <mxGeometry x="546" y="166" width="110" height="50" as="geometry" />
        </mxCell>
        <mxCell id="zLy3P4jvhu5-wyjdhr2z-40" value="著者" style="html=1;whiteSpace=wrap;" vertex="1" parent="1">
          <mxGeometry x="436" y="166" width="110" height="50" as="geometry" />
        </mxCell>
        <mxCell id="zLy3P4jvhu5-wyjdhr2z-41" value="書名" style="html=1;whiteSpace=wrap;" vertex="1" parent="1">
          <mxGeometry x="326" y="166" width="110" height="50" as="geometry" />
        </mxCell>
        <mxCell id="zLy3P4jvhu5-wyjdhr2z-42" value="貸し出し中か" style="html=1;whiteSpace=wrap;" vertex="1" parent="1">
          <mxGeometry x="656" y="166" width="110" height="50" as="geometry" />
        </mxCell>
        <mxCell id="zLy3P4jvhu5-wyjdhr2z-43" value="" style="endArrow=diamondThin;endFill=0;endSize=24;html=1;rounded=0;fontSize=12;curved=1;entryX=0.5;entryY=1;entryDx=0;entryDy=0;exitX=0.25;exitY=0;exitDx=0;exitDy=0;" edge="1" parent="1" source="zLy3P4jvhu5-wyjdhr2z-41" target="zLy3P4jvhu5-wyjdhr2z-8">
          <mxGeometry width="160" relative="1" as="geometry">
            <mxPoint x="284" y="700" as="sourcePoint" />
            <mxPoint x="310" y="614" as="targetPoint" />
          </mxGeometry>
        </mxCell>
        <mxCell id="zLy3P4jvhu5-wyjdhr2z-44" value="" style="endArrow=diamondThin;endFill=0;endSize=24;html=1;rounded=0;fontSize=12;curved=1;entryX=1;entryY=0.75;entryDx=0;entryDy=0;exitX=0.5;exitY=0;exitDx=0;exitDy=0;" edge="1" parent="1" source="zLy3P4jvhu5-wyjdhr2z-40" target="zLy3P4jvhu5-wyjdhr2z-8">
          <mxGeometry width="160" relative="1" as="geometry">
            <mxPoint x="384" y="664" as="sourcePoint" />
            <mxPoint x="410" y="578" as="targetPoint" />
          </mxGeometry>
        </mxCell>
        <mxCell id="zLy3P4jvhu5-wyjdhr2z-45" value="" style="endArrow=diamondThin;endFill=0;endSize=24;html=1;rounded=0;fontSize=12;curved=1;entryX=1;entryY=0.25;entryDx=0;entryDy=0;exitX=0.25;exitY=0;exitDx=0;exitDy=0;" edge="1" parent="1" source="zLy3P4jvhu5-wyjdhr2z-39" target="zLy3P4jvhu5-wyjdhr2z-8">
          <mxGeometry width="160" relative="1" as="geometry">
            <mxPoint x="416" y="892" as="sourcePoint" />
            <mxPoint x="442" y="806" as="targetPoint" />
          </mxGeometry>
        </mxCell>
        <mxCell id="zLy3P4jvhu5-wyjdhr2z-46" value="" style="endArrow=diamondThin;endFill=0;endSize=24;html=1;rounded=0;fontSize=12;curved=1;entryX=1;entryY=0;entryDx=0;entryDy=0;exitX=0.25;exitY=0;exitDx=0;exitDy=0;" edge="1" parent="1" source="zLy3P4jvhu5-wyjdhr2z-42" target="zLy3P4jvhu5-wyjdhr2z-8">
          <mxGeometry width="160" relative="1" as="geometry">
            <mxPoint x="552" y="888" as="sourcePoint" />
            <mxPoint x="578" y="802" as="targetPoint" />
          </mxGeometry>
        </mxCell>
        <mxCell id="zLy3P4jvhu5-wyjdhr2z-47" value="必要事項" style="html=1;whiteSpace=wrap;" vertex="1" parent="1">
          <mxGeometry x="-464" y="-37" width="110" height="50" as="geometry" />
        </mxCell>
        <mxCell id="zLy3P4jvhu5-wyjdhr2z-48" value="" style="endArrow=diamondThin;endFill=0;endSize=24;html=1;rounded=0;fontSize=12;curved=1;entryX=0;entryY=0.5;entryDx=0;entryDy=0;exitX=1;exitY=0.5;exitDx=0;exitDy=0;" edge="1" parent="1" source="zLy3P4jvhu5-wyjdhr2z-47" target="zLy3P4jvhu5-wyjdhr2z-9">
          <mxGeometry width="160" relative="1" as="geometry">
            <mxPoint x="-412" y="43" as="sourcePoint" />
            <mxPoint x="-386" y="-58" as="targetPoint" />
          </mxGeometry>
        </mxCell>
        <mxCell id="zLy3P4jvhu5-wyjdhr2z-50" value="" style="endArrow=none;html=1;rounded=0;fontSize=12;startSize=8;endSize=8;curved=1;entryX=0.5;entryY=1;entryDx=0;entryDy=0;exitX=0.5;exitY=0;exitDx=0;exitDy=0;" edge="1" parent="1" source="zLy3P4jvhu5-wyjdhr2z-5" target="zLy3P4jvhu5-wyjdhr2z-9">
          <mxGeometry width="50" height="50" relative="1" as="geometry">
            <mxPoint x="-579" y="250" as="sourcePoint" />
            <mxPoint x="-646" y="264" as="targetPoint" />
          </mxGeometry>
        </mxCell>
        <mxCell id="zLy3P4jvhu5-wyjdhr2z-51" value="" style="endArrow=none;html=1;rounded=0;fontSize=12;startSize=8;endSize=8;curved=1;entryX=1;entryY=0.5;entryDx=0;entryDy=0;exitX=0;exitY=0.5;exitDx=0;exitDy=0;" edge="1" parent="1" source="zLy3P4jvhu5-wyjdhr2z-8" target="zLy3P4jvhu5-wyjdhr2z-5">
          <mxGeometry width="50" height="50" relative="1" as="geometry">
            <mxPoint x="428" y="219" as="sourcePoint" />
            <mxPoint x="237" y="150" as="targetPoint" />
          </mxGeometry>
        </mxCell>
        <mxCell id="zLy3P4jvhu5-wyjdhr2z-52" value="" style="endArrow=diamondThin;endFill=0;endSize=24;html=1;rounded=0;fontSize=12;curved=1;exitX=1;exitY=0.5;exitDx=0;exitDy=0;" edge="1" parent="1" source="zLy3P4jvhu5-wyjdhr2z-10" target="zLy3P4jvhu5-wyjdhr2z-6">
          <mxGeometry width="160" relative="1" as="geometry">
            <mxPoint x="-289" y="328" as="sourcePoint" />
            <mxPoint x="-181" y="242" as="targetPoint" />
          </mxGeometry>
        </mxCell>
      </root>
    </mxGraphModel>
  </diagram>
</mxfile>
